<svg width="10" height="10" viewBox="0 0 10 10" fill="none" xmlns="http://www.w3.org/2000/svg">
<path fill-rule="evenodd" clip-rule="evenodd" d="M10 5C10 7.76142 7.76142 10 5 10C2.23858 10 0 7.76142 0 5C0 2.23858 2.23858 0 5 0C7.76142 0 10 2.23858 10 5ZM5.5 2.5C5.5 2.22386 5.27614 2 5 2C4.72386 2 4.5 2.22386 4.5 2.5C4.5 2.77614 4.72386 3 5 3C5.27614 3 5.5 2.77614 5.5 2.5ZM5.5 4.50008C5.5 4.22394 5.27614 4.00008 5 4.00008C4.72386 4.00008 4.5 4.22394 4.5 4.50008V7.50008C4.5 7.77623 4.72386 8.00008 5 8.00008C5.27614 8.00008 5.5 7.77623 5.5 7.50008V4.50008Z" fill="#FF9311"/>
</svg>
