<?xml version="1.0" encoding="UTF-8"?>
<svg version="1.1" xmlns="http://www.w3.org/2000/svg" width="30" height="30">
<path d="M0 0 C4.29 0 8.58 0 13 0 C13 3.96 13 7.92 13 12 C8.71 12 4.42 12 0 12 C0 8.04 0 4.08 0 0 Z M4 3 C4 4.98 4 6.96 4 9 C4.33 9 4.66 9 5 9 C5 7.02 5 5.04 5 3 C4.67 3 4.34 3 4 3 Z M8 4 C9 8 9 8 9 8 Z M6 5 C7 7 7 7 7 7 Z " fill="#000000" transform="translate(2,4)"/>
<path d="M0 0 C2.97 0 5.94 0 9 0 C9 6.6 9 13.2 9 20 C3.72 20 -1.56 20 -7 20 C-7 17.36 -7 14.72 -7 12 C-6.34 12 -5.68 12 -5 12 C-5 13.98 -5 15.96 -5 18 C-1.04 18 2.92 18 7 18 C7 12.72 7 7.44 7 2 C4.69 2 2.38 2 0 2 C0 1.34 0 0.68 0 0 Z " fill="#000000" transform="translate(17,6)"/>
<path d="M0 0 C2.64 0 5.28 0 8 0 C8 0.66 8 1.32 8 2 C5.36 2 2.72 2 0 2 C0 1.34 0 0.68 0 0 Z " fill="#000000" transform="translate(14,19)"/>
<path d="M0 0 C1.65 0 3.3 0 5 0 C5 0.66 5 1.32 5 2 C3.35 2 1.7 2 0 2 C0 1.34 0 0.68 0 0 Z " fill="#000000" transform="translate(17,15)"/>
<path d="M0 0 C1.65 0 3.3 0 5 0 C5 0.66 5 1.32 5 2 C3.35 2 1.7 2 0 2 C0 1.34 0 0.68 0 0 Z " fill="#000000" transform="translate(17,11)"/>
</svg>
