<svg width="20" height="20" viewBox="0 0 20 20" fill="none" xmlns="http://www.w3.org/2000/svg">
<path d="M2.5 5H4.16667H17.5" stroke="#51515D" stroke-width="1.5" stroke-linecap="round" stroke-linejoin="round"/>
<path d="M15.8333 5.00033V16.667C15.8333 17.109 15.6577 17.5329 15.3452 17.8455C15.0326 18.1581 14.6087 18.3337 14.1667 18.3337H5.83334C5.39131 18.3337 4.96739 18.1581 4.65483 17.8455C4.34227 17.5329 4.16667 17.109 4.16667 16.667V5.00033M6.66667 5.00033V3.33366C6.66667 2.89163 6.84227 2.46771 7.15483 2.15515C7.46739 1.84259 7.89131 1.66699 8.33334 1.66699H11.6667C12.1087 1.66699 12.5326 1.84259 12.8452 2.15515C13.1577 2.46771 13.3333 2.89163 13.3333 3.33366V5.00033" stroke="#51515D" stroke-width="1.5" stroke-linecap="round" stroke-linejoin="round"/>
<path d="M8.33333 9.16699V14.167" stroke="#51515D" stroke-width="1.5" stroke-linecap="round" stroke-linejoin="round"/>
<path d="M11.6667 9.16699V14.167" stroke="#51515D" stroke-width="1.5" stroke-linecap="round" stroke-linejoin="round"/>
</svg>
